Storyline: A decade after his heroic defeat of the monstrous Kraken, Perseus-the demigod son of Zeus-is attempting to live a quieter life as a village fisherman and the sole parent to his 10-year old son, Helius. Meanwhile, a struggle for supremacy rages between the gods and the Titans. Dangerously weakened by humanity's lack of devotion, the gods are losing control of the imprisoned Titans and their ferocious leader, Kronos, father of the long-ruling brothers Zeus, Hades and Poseidon. The triumvirate had overthrown their powerful father long ago, leaving him to rot in the gloomy abyss of Tartarus, a dungeon that lies deep within the cavernous underworld. Perseus cannot ignore his true calling when Hades, along with Zeus' godly son, Ares (Edgar Ramírez), switch loyalty and make a deal with Kronos to capture Zeus. The Titans' strength grows stronger as Zeus' remaining godly powers are siphoned...…

Cast: Sam Worthington / Liam Neeson / Ralph Fiennes / Édgar Ramírez / Toby Kebbell / Rosamund Pike / Bill Nighy / Danny Huston / John Bell / Lily James / Alejandro Naranjo / Freddy Drabble / Kathryn Carpenter / Matt Milne / Kett Turton

Genres: n/A

Language: English


Format : MPEG-4 
Format profile : Base Media 
Codec ID : isom 
File size : 400 MiB 
Duration : 1h 30mn 
Overall bit rate mode : Variable 
Overall bit rate : 621 Kbps 
Encoded date : UTC 2012-04-01 17:02:54 
Tagged date : UTC 2012-04-01 17:02:54 

Video 
ID : 1 
Format : AVC 
Format/Info : Advanced Video Codec 
Format profile : High@L4.1 
Format settings, CABAC : Yes 
Format settings, ReFrames : 2 frames 
Codec ID : avc1 
Codec ID/Info : Advanced Video Coding 
Duration : 1h 30mn 
Bit rate : 586 Kbps 
Maximum bit rate : 1 520 Kbps 
Width : 720 pixels 
Height : 352 pixels 
Display aspect ratio : 2.045 
Frame rate mode : Constant 
Frame rate : 23.976 fps 
Color space : YUV 
Chroma subsampling : 4:2:0 
Bit depth : 8 bits 
Scan type : Progressive 
Bits/(Pixel*Frame) : 0.096 
Stream size : 377 MiB (94%) 
Writing library : x264 core 120 r2164 da19765 
Encoding settings : cabac=1 / ref=1 / deblock=0:0:0 / analyse=0x3:0x113 / me=hex / subme=4 / psy=1 / psy_rd=1.00:0.00 / mixed_ref=0 / me_range=8 / chroma_me=1 / trellis=0 / 8x8dct=1 / cqm=0 / deadzone=21,11 / fast_pskip=1 / chroma_qp_offset=0 / threads=6 / sliced_threads=0 / nr=0 / decimate=1 / interlaced=0 / bluray_compat=0 / constrained_intra=0 / bframes=16 / b_pyramid=0 / b_adapt=1 / b_bias=0 / direct=3 / weightb=1 / open_gop=0 / weightp=2 / keyint=240 / keyint_min=23 / scenecut=40 / intra_refresh=0 / rc=2pass / mbtree=0 / bitrate=586 / ratetol=1.0 / qcomp=0.60 / qpmin=10 / qpmax=51 / qpstep=4 / cplxblur=20.0 / qblur=0.5 / ip_ratio=1.40 / pb_ratio=1.30 / aq=2:1.00 
Encoded date : UTC 2012-04-01 17:02:54 
Tagged date : UTC 2012-04-01 17:03:16 

Audio 
ID : 2 
Format : AAC 
Format/Info : Advanced Audio Codec 
Format profile : LC 
Codec ID : 40 
Duration : 1h 30mn 
Bit rate mode : Variable 
Bit rate : 32.0 Kbps 
Maximum bit rate : 37.1 Kbps 
Channel(s) : 2 channels 
Channel positions : Front: L R 
Sampling rate : 48.0 KHz 
Compression mode : Lossy 
Stream size : 20.6 MiB (5%) 
Encoded date : UTC 2012-04-01 17:03:14 
Tagged date : UTC 2012-04-01 17:03:16 